<?xml version="1.0" encoding="utf-8"?>
<!-- Generator: Adobe Illustrator 25.4.1, SVG Export Plug-In . SVG Version: 6.00 Build 0)  -->
<svg width="50" height="50" version="1.1" id="Layer_1" xmlns="http://www.w3.org/2000/svg" xmlns:xlink="http://www.w3.org/1999/xlink" x="0px" y="0px"
	 viewBox="0 0 1823 2500" style="enable-background:new 0 0 1823 2500;" xml:space="preserve">
<style type="text/css">
	.st0{fill:#C7C7C7;}
	.st1{fill-rule:evenodd;clip-rule:evenodd;fill:#B1B1B1;}
	.st2{fill:#C3C3C3;}
	.st3{fill-rule:evenodd;clip-rule:evenodd;fill:#AFAFAF;}
	.st4{fill:#989898;}
	.st5{fill:#DBDBDB;}
	.st6{fill:#CACACA;}
</style>
<path class="st0" d="M15.1,2005.8l14.9-20.8L733.1,650.8l1.5-14.1l-310-582.2C398.6,5.7,325.5,18,317,72.6L15.1,2005.8z"/>
<g>
	<path id="a" class="st1" d="M23.8,1989.9l11.2-21.9L730.9,647.8L421.7,63.2c-25.7-48.3-90.9-36-99.4,18.1L23.8,1989.9z"/>
</g>
<path class="st2" d="M960.5,1077.1l230.8-236.4L960.5,400c-21.9-41.7-83.1-41.8-104.8,0L732.3,635.2v20L960.5,1077.1L960.5,1077.1z"
	/>
<g>
	<path id="c" class="st3" d="M956.4,1067.2l224.4-229.8L956.4,410.2c-21.3-40.6-73.1-44.8-94.1-4.1l-124,238.9l-3.7,12.2
		L956.4,1067.2z"/>
</g>
<path class="st4" d="M15.1,2005.8l6.7-6.8l24.5-9.9L946,1092.7l11.4-31L733,633.9L15.1,2005.8z"/>
<path class="st5" d="M989.3,2457.9l814.3-454.1L1571.1,571.6c-7.3-44.8-62.2-62.5-94.3-30.4L15.1,2005.8l809.6,452
	C875.8,2486.4,938.2,2486.4,989.3,2457.9"/>
<path class="st6" d="M1796.3,1999.9L1565.6,578.7c-7.2-44.5-52.9-62.9-84.8-31L24.1,2003l800.7,447.6c50.8,28.4,112.6,28.4,163.4,0
	L1796.3,1999.9L1796.3,1999.9z"/>
</svg>
