<?xml version="1.0" encoding="utf-8"?>
<!-- Generator: Adobe Illustrator 25.4.1, SVG Export Plug-In . SVG Version: 6.00 Build 0)  -->
<svg width="70" height="50" version="1.1" id="Layer_1" xmlns="http://www.w3.org/2000/svg" xmlns:xlink="http://www.w3.org/1999/xlink" x="0px" y="0px"
	 viewBox="0 0 512 212" style="enable-background:new 0 0 512 212;" xml:space="preserve">
<style type="text/css">
	.st0{fill:#797979;}
	.st1{fill:#939393;}
</style>
<g>
	<polygon class="st0" points="274.3,33.9 274.3,127.5 308.7,93.1 326.1,110.5 262.5,174 198.1,109.6 215.5,92.3 249.8,126.6 
		249.8,33.9 	"/>
	<polygon class="st0" points="53.2,169.2 53.2,96.7 97.6,141.1 142.3,96.4 142.3,168.5 166.9,168.5 166.9,37.2 97.6,106.4 
		28.6,37.5 28.6,169.2 	"/>
	<polygon class="st1" points="467.5,29.9 484.8,47.3 432.9,99.3 483.2,149.7 465.9,167 415.5,116.6 365.1,167 347.7,149.7 
		398.1,99.3 346.1,47.3 363.5,29.9 415.5,81.9 	"/>
</g>
</svg>
