<?xml version="1.0" encoding="utf-8"?>
<!-- Generator: Adobe Illustrator 25.4.1, SVG Export Plug-In . SVG Version: 6.00 Build 0)  -->
<svg width="50" height="50" version="1.1" id="Layer_1" xmlns="http://www.w3.org/2000/svg" xmlns:xlink="http://www.w3.org/1999/xlink" x="0px" y="0px"
	 viewBox="0 0 256 256" style="enable-background:new 0 0 256 256;" xml:space="preserve">
<style type="text/css">
	.st0{fill:#797979;}
	.st1{fill:url(#SVGID_1_);}
</style>
<g>
	<path class="st0" d="M45.8,61.4c-0.9,0.2-1.6,0.7-2.3,1.5c-0.6,0.9-0.9,2.4-0.5,3.4c0.3,0.9,1.8,2.7,3.5,3.9
		c-1.7,2.2-4.9,6.5-6.4,8.8c-11.2,16.3-17.8,31.2-18.7,41.9c-0.5,5.8,0.7,9.9,3.3,13c2,2.3,4.3,3.6,8,4.4c3.1,0.6,7.7,0.6,12.5-0.1
		c-3,4.3-7.2,10.8-9.4,14.5c-3.6,6.2-7.3,14.1-8.7,18.6c-2.4,7.9-2.8,14.3-1.1,20.5c1,3.8,2.6,6.8,4.8,9.2s5,4,8.5,5
		c5.7,1.5,13.9,1.1,24.4-1.4c2.2-0.5,5.6-1.5,8.1-2.2c-2.3,7.9-2,15.1,0.5,20.2c0.8,1.7,3.1,4.5,4.5,5.5c8.2,6.1,25.3,5.9,48.4-1.4
		c1.8-0.6,7.1-2.4,9.7-3.3c1.8,2.4,3.4,3.3,7.3,3.8c2.5,0.3,4.5-0.1,6.5-1.2c0.9-0.5,1.4-1,1.7-1.5c0.5-0.8,0.6-1.6,0.2-2.5
		c-0.3-0.9-0.8-1.4-1.6-1.8c-0.5-0.2-1.2-0.4-2.3-0.5c-0.9-0.1-1.2-0.1-1.7-0.4l0.1-0.1c4-1.7,12.7-6.1,18.1-9.1
		c19.7-11,40.7-26.4,54.7-40.2c12.7-12.5,25-28.1,27.5-34.8c0.8-2,1-4.1,0.7-5.7c-0.3-1.3-0.4-1.6-1.6-3.1c-1.3-1.5-1.6-1.7-2.8-2.2
		c-4-1.6-10.1,0.2-22.2,7.5c-15.4,9.4-38.4,26.9-54.5,41.7c-15.9,14.5-26.4,27.2-30.2,36.4c-0.5,1.1-0.5,1.6-0.7,1.8
		c-0.2,0.1-2.4,1-4.8,1.9c-13,5.1-24.4,8-32.8,8.3c-2.3,0.1-6.1-0.1-7.9-0.5c-1.5-0.3-3.4-1.1-4.2-1.8c-0.9-0.8-1.2-2.2-1.3-4
		c-0.1-2.2,0.4-5,1.3-8.2c0.6-2.2,2.9-7.8,4-10l2.6-1.4c14.2-5.4,30.3-13.1,45.3-21.9c20.3-11.9,43.7-28.3,64.7-45.5
		c12.5-10.2,19.2-16.7,25.6-24.6c5-6.1,9-13.1,9.9-16.9c0.7-2.7,0.6-5.2-0.2-7.3c-0.8-2.2-2.2-4-4.4-5.2c-5.6-3.3-15.7-2-29.5,4.2
		c-13,5.8-29.2,15.9-47.5,29.7c-10.9,8.2-26.3,21-34.4,28.6c-20.7,19.4-34.8,36.2-42.7,50.8l-0.5,1c-6.9,2.6-17.7,5.6-23,6.6
		c-4.5,0.7-8.8,1-11.3,0.4c-1.6-0.3-2.8-0.8-3.6-1.7c-0.9-0.9-1.5-2.3-1.9-4c-0.6-2.8-0.4-7.3,0.4-10.7c2.6-10.4,11-25.3,23.8-42.5
		l2.8-3.7l2.9-1.1c19.1-7.3,42.7-20.5,63.7-35.5c11.6-8.3,24.1-18.6,32.6-26.9c6.8-6.6,12.2-12.7,16.3-18.4c3.7-5,6-9.3,7-12.9
		c1.2-4,0.8-7.3-0.9-10.1c-1.3-2.1-3.2-3.6-5.7-4.2c-2.2-0.6-4.9-0.6-8,0.2c-8.8,2.4-21.9,10.3-40.6,24.5
		c-4.7,3.6-20,16.5-24.6,20.7C88.3,87,71.3,104.9,57,122.8l-2.7,3.4l-1.5,0.5c-4.4,1.3-9.5,2.3-13.1,2.5c-2.1,0.1-4.9-0.2-6.1-0.7
		c-0.6-0.3-0.7-0.4-1.1-0.9c-0.7-0.9-0.8-1.8-0.9-3.5c-0.3-7.6,5-20.4,13.7-34c3.3-5.2,7.1-10.5,11.2-15.6l2-2.5
		c6.2-1.9,12.4-5.9,21.8-13.7c10.7-9,21.2-20.4,24.1-24.3c3.4-4.6,4.7-9.1,4.1-10.9c-0.4-1.1-1.1-2.1-2.1-2.7c-1-0.7-2.1-1-3.3-0.9
		c-1.6,0.2-5.4,2.2-10.4,5.8C89.2,27.9,79.3,36,75,39.9C67.1,47,62,52.2,55.5,59.5l-2,2.3c-1.8,0.4-3.4,0.2-4.8-0.2
		C47.4,61.3,46.6,61.3,45.8,61.4z M124.1,71.1c5.5-4.7,7.8-6.6,15.2-12.7c9-7.3,19-14.2,26.3-18.2c3.6-2,6.9-3.6,9.5-4.1
		c-0.6,1.3-1.5,2.8-2.5,4.4c-4.9,7.3-12.2,15.6-23.3,26.2c-3.3,3.2-20.1,17.2-24.2,20.3c-14,10.5-27,18.8-40.3,25.9
		c-1.7,0.9-3.7,2-5.7,2.9C92.9,100.1,108.5,84.7,124.1,71.1L124.1,71.1z M193.9,97.4c14.1-8.5,26.1-13.5,31.8-13.7
		c-0.1,0.5-0.3,1.1-0.6,1.6c-2.2,5.3-8.5,12.9-17.4,21.4c-3.7,3.5-18,15.5-24.7,20.6c-32,24.5-58.2,41-83.8,52.6
		c4.5-6,10.8-13.5,16.7-19.7c11.2-11.7,24.9-24.1,38.5-34.9C169.8,113.3,181.9,104.7,193.9,97.4z M202.4,159
		c10.4-8.2,19.8-14.7,26.7-18.8c-0.7,0.9-1.3,1.8-2,2.6c-11,13.9-24.2,26.5-40.6,38.5c-9.6,7.1-19.6,13.6-29.3,19
		c5.6-6.4,12.7-13.5,22.3-22.2C182,175.8,199.1,161.6,202.4,159L202.4,159z"/>
	
		<radialGradient id="SVGID_1_" cx="-237.7279" cy="-0.3178" r="0.9391" gradientTransform="matrix(48.0745 67.7844 -67.7844 48.0745 11512.0117 16236.9033)" gradientUnits="userSpaceOnUse">
		<stop  offset="0" style="stop-color:#FFFFFF;stop-opacity:0.9044"/>
		<stop  offset="1" style="stop-color:#999999"/>
	</radialGradient>
	<ellipse class="st1" cx="125.1" cy="128.9" rx="61" ry="61.1"/>
	<path class="st0" d="M241.7,124.2c1.2,0.5,1.5,0.6,2.8,2.2c1.2,1.5,1.4,1.8,1.6,3.1c0.3,1.6,0.1,3.7-0.7,5.7
		c-2.5,6.7-14.8,22.3-27.5,34.8c-14,13.8-35,29.3-54.7,40.2c-5.4,3-14.1,7.3-18.1,9.1l-0.1,0.1l-10.1,4.1c-1,0.4-2.4,0.9-3.9,1.4
		l-1,0.3c-1.9,0.7-3.8,1.3-4.8,1.6c-23.1,7.2-40.2,7.5-48.4,1.4l7.6-8.6c0.7,0.7,2.6,1.4,4.2,1.8c1.8,0.4,5.6,0.7,7.9,0.5
		c8.5-0.4,19.8-3.3,32.8-8.3c2.4-0.9,4.5-1.8,4.8-1.9l23.1-11.3c9.7-5.4,19.7-11.9,29.3-19c16.4-12.1,29.6-24.6,40.6-38.5
		c0.6-0.8,1.3-1.7,2-2.6L241.7,124.2z M232.1,74.5c2.2,1.3,3.6,3,4.4,5.2c0.7,2.1,0.8,4.5,0.2,7.3c-0.9,3.9-4.9,10.8-9.9,16.9
		c-6.4,7.9-13.1,14.3-25.6,24.6c-21,17.2-44.3,33.6-64.7,45.5c-15.1,8.8-31.1,16.6-45.3,21.9l-2.6,1.4L72,202.4
		c-2.5,0.7-5.9,1.7-8.1,2.2c-10.5,2.5-18.8,2.9-24.4,1.4c-3.4-0.9-6.3-2.6-8.5-5c-2.2-2.3-3.8-5.4-4.8-9.2l11.5-1.8
		c0.4,1.8,1,3.1,1.9,4s2.1,1.4,3.6,1.7c2.5,0.5,6.9,0.3,11.3-0.4c5.4-0.9,16.1-3.9,23-6.6l21.8-8.8c25.5-11.6,51.8-28.1,83.8-52.6
		c6.7-5.1,21-17.1,24.7-20.6c8.9-8.5,15.2-16.2,17.4-21.4c0.2-0.5,0.4-1.1,0.6-1.6L232.1,74.5z M180.7,24c2.4,0.6,4.4,2.1,5.7,4.2
		c1.7,2.8,2,6.1,0.9,10.1c-1,3.6-3.4,7.9-7,12.9c-4.2,5.7-9.6,11.8-16.3,18.4c-8.5,8.3-21,18.6-32.6,26.9
		c-21,15-44.6,28.1-63.7,35.5l-2.9,1.1l-10.1,3.1l-9.2,2.1c-4.7,0.7-9.4,0.8-12.5,0.1c-3.7-0.8-6-2.1-8-4.4c-2.7-3.2-3.8-7.2-3.3-13
		l10.1,3.1c0.1,1.7,0.2,2.6,0.9,3.5c0.4,0.5,0.5,0.6,1.1,0.9c1.2,0.6,4,0.8,6.1,0.7c1.4-0.1,3.7-0.5,6-0.9l0.8-0.2
		c3-0.6,5.9-1.3,6.3-1.4h0.1l0,0l26.4-10.8h0.1c0.5-0.3,4-2.1,5.6-2.9c13.3-7.1,26.3-15.5,40.3-25.9c4.2-3.1,20.9-17.1,24.2-20.3
		c11.1-10.6,18.5-18.9,23.3-26.2c1-1.5,1.6-3.1,2.5-4.4L180.7,24z"/>
</g>
</svg>
