<?xml version="1.0" encoding="utf-8"?>
<!-- Generator: Adobe Illustrator 25.4.1, SVG Export Plug-In . SVG Version: 6.00 Build 0)  -->
<svg version="1.1" id="Layer_1" xmlns="http://www.w3.org/2000/svg" xmlns:xlink="http://www.w3.org/1999/xlink" x="0px" y="0px"
	 viewBox="0 0 400 400" style="enable-background:new 0 0 400 400;" xml:space="preserve" width="50" height="50">
<style type="text/css">
	.st0{fill:#9b9b9b;}
</style>
<path class="st0" d="M12,100.7v21.9h69.9v199.1h49.6V122.6h69.9v-21.5c0-12.1,0-21.9-0.5-22.2c0-0.4-42.6-0.5-94.4-0.5l-94.1,0.4
	v22.1L12,100.7L12,100.7z M326.3,78.2c13.7,3.2,24.2,9.4,33.6,19.2c5,5.4,12.4,14.8,12.9,17.2c0,0.8-23.3,16.5-37.4,25.3
	c-0.5,0.4-2.7-1.9-4.8-5.4c-7-10-14.1-14.3-25.3-15.1c-16.1-1.1-26.9,7.4-26.9,21.5c0,4.3,0.8,6.7,2.4,10.2
	c3.6,7.4,10.4,11.8,31.2,21c38.5,16.5,55.1,27.4,65.2,43c11.4,17.5,14,44.9,6.3,65.5c-8.6,22.5-29.6,37.7-59.6,42.6
	c-9.4,1.6-30.9,1.3-41-0.4c-21.5-4-42.1-14.8-54.7-28.6c-5-5.4-14.5-19.8-14-20.7l5.1-3.2l20.2-11.7l15.2-8.9l3.5,4.7
	c4.4,7,14.4,16.4,20.2,19.6c17.5,9,40.9,7.8,52.5-2.7c5-4.6,7.1-9.4,7.1-16.1c0-6.2-0.9-9-4-13.7c-4.3-5.9-12.9-10.8-37.1-21.5
	c-27.8-11.8-39.7-19.4-50.7-30.9c-6.3-7-12.1-17.9-14.8-26.9c-2-7.8-2.7-26.9-0.8-34.6c5.8-26.9,26.1-45.7,55.1-51.1
	c9.4-1.9,31.6-1.1,40.9,1.3L326.3,78.2L326.3,78.2z"/>
</svg>
